<?xml version="1.0" encoding="UTF-8"?>
<svg id="Camada_2" xmlns="http://www.w3.org/2000/svg" viewBox="0 0 282.8 249.77">
  <defs>
    <style>
      .cls-1 {
        fill: #ea3e0a;
      }
    </style>
  </defs>
  <g id="Camada_1-2" data-name="Camada_1">
    <path class="cls-1" d="M248.76,78.27c-4.2-2.52-6.05-4.89-4.73-9.91,1.25-4.78,2.5-9.89,2.07-14.7-1.55-17.03-9.84-30.31-24.56-39.15-6.92-4.15-14.26-7.6-21.47-11.26-9.75-4.95-25.31-4.09-35.12,5.5-8.7,8.5-11.41,22.29-6.64,34.07,2.91,7.19,8.11,12.08,14.75,15.57,11.42,6,22.96,11.79,34.38,17.8,2.04,1.08,3.74,2.81,6.22,4.72-2.46,1.36-3.88,2.27-5.4,2.98-20.74,9.6-41.54,19.08-62.22,28.81-3.86,1.81-7.13,1.15-10.64-.47-19.89-9.21-39.81-18.37-59.69-27.61-1.85-.86-3.49-2.17-6.1-3.82,4.26-2.25,7.48-4.04,10.79-5.68,11.28-5.58,23.14-10.23,33.76-16.86,14.89-9.29,18.76-24.89,12.22-38.99C117.61.39,103.83-3.14,85.72,2.35c-10.49,3.18-20.2,9.63-29.55,15.71-15.08,9.81-22.28,29.99-18.01,47.46.48,1.96.67,4,1.26,5.92.87,2.82-.34,4.23-2.73,5.5-5.76,3.06-11.75,5.86-17.02,9.64C6.52,95.99-.52,109.08.03,125.27c.63,18.61,9.87,32.36,26.21,41.3,4.48,2.45,9,4.85,13.32,7.18.1.63.24.96.18,1.24-.63,3.04-1.29,6.09-1.96,9.12-3.72,16.92,1.14,31.77,13.99,42.44,9.65,8.01,21.67,13.15,32.63,19.58,10.43,6.11,20.24,3.77,29.83-2.11,9.9-6.07,15.41-19.93,12.67-31.27-2.56-10.62-9.89-16.99-18.91-21.86-11.22-6.06-22.56-11.89-33.75-17.99-1.41-.77-3.13-2.57-3.12-3.88,0-1.37,1.89-2.77,3.05-4.06.39-.43,1.07-.61,1.64-.87,21.17-9.79,42.33-19.59,63.53-29.29,1.1-.5,2.79-.67,3.84-.19,21.77,9.97,43.5,20.02,65.18,30.2,1.63.77,2.78,2.56,4.15,3.87-1.35,1.15-2.56,2.57-4.08,3.42-13.03,7.29-26.13,14.43-39.18,21.69-9.87,5.49-18.31,22.49-11.67,36.78,3.87,8.32,9.64,13.63,18.06,17.05,6.01,2.44,11.51,3.2,17.4.31,10.04-4.92,20.27-9.47,30.13-14.71,15.12-8.04,27.45-31.86,21.51-49.57-.59-1.75-.56-3.7-1.05-5.49-.93-3.38.14-5.22,3.41-6.86,5.96-2.98,11.91-6.18,17.27-10.1,22.91-16.72,24.06-49.05,6.11-67.82-5.97-6.24-14.1-10.56-21.65-15.09ZM67.23,30.76c6.25-4.28,13.17-7.69,20.07-10.87,3.26-1.5,7.2-2.11,10.83-2.13,9.57-.05,13.47,4.3,13.23,14.95.18,4.14-1.25,8.71-6.15,11.13-14.07,6.94-28.14,13.93-42.44,20.38-6.89,3.1-8.34,1.91-9.13-5.62-1.27-12.07,4.03-21.28,13.6-27.84ZM103.79,207.87c4.61,2.48,6.84,6.6,6.95,10.97,0,9.21-10.2,16.21-17.76,12.68-8.28-3.87-16.55-7.9-24.35-12.64-10.95-6.65-16.41-16.58-15.3-29.71.48-5.69,2-6.92,6.88-4.39,14.6,7.56,29.11,15.3,43.59,23.08ZM117.97,125.61c-6.95,3.37-13.87,6.79-20.85,10.09-12.49,5.92-25.55,10.86-37.33,17.95-8.02,4.83-13.96,5.04-21.74.23-7.21-4.46-14.48-8.11-18.18-16.5-6.41-14.55-2.55-29.54,10.89-38.19,5.59-3.6,11.78-6.26,17.78-9.18.87-.42,2.36-.21,3.3.25,17.95,8.85,35.86,17.76,53.76,26.72,4.23,2.12,8.34,4.47,12.51,6.72-.05.64-.09,1.28-.14,1.91ZM180.99,43.28c-4.23-2.24-7.62-5.28-8.18-10.58-1.16-11,9.47-18.5,20.1-13.71,7.2,3.25,14.21,7.02,21.03,11.02,13.59,7.95,16.81,18.72,13.66,36.12-3.11-1.12-5.98-1.82-8.55-3.13-12.74-6.47-25.43-13.04-38.06-19.72ZM216.98,217.01c-9.19,5.45-18.82,10.19-28.47,14.8-6.31,3.01-15.23-3.11-15.81-10.13-.55-6.63,1.18-11.59,7.54-14.95,15.34-8.09,30.47-16.6,45.97-25.1,5.79,12.64,1.45,29.05-9.24,35.38ZM255.55,146.62c-6.32,4.86-13.95,8.02-21.12,11.72-1.1.57-3.07.3-4.28-.29-20.67-10.06-41.28-20.23-61.9-30.38-1.37-.68-2.71-1.41-5.37-2.8,3.67-2.18,6.18-3.97,8.92-5.26,13.79-6.46,27.72-12.64,41.45-19.24,5.85-2.82,11.26-6.55,16.99-9.63,1.39-.75,3.67-1.38,4.85-.75,6.59,3.48,13.17,7.04,19.36,11.17,15.75,10.49,13.92,35.61,1.1,45.47Z"/>
  </g>
</svg>